# xmcd
#
# Track frame offsets:
#	150
#	21965
#	36722
#	55370
#	69385
#	98072
#	115155
#	131547
#	145485
#	158412
#	170130
#	182392
#	196740
#
# Disc length: 2851 seconds
#
# Revision: 1
# Processed by: cddbd v1.4PL0 Copyright (c) Steve Scherf et al.
# Submitted via: audiograbber 1.82.02
#
DISCID=b40b210d
DTITLE=Steve Guyger - Last Train to Dover
DYEAR=1997
DGENRE=Blues
TTITLE0=Catfish Blues
TTITLE1=Honeydripper
TTITLE2=That's Right
TTITLE3=John Henry
TTITLE4=Blues from the Darkside
TTITLE5=Sunny Side of Love
TTITLE6=Love is a Gamble
TTITLE7=The Philly Shimmy
TTITLE8=Come Back Home Baby
TTITLE9=Don't Need You Runnin' Around
TTITLE10=Walkin' Blues
TTITLE11=Jumpin' the Showplace
TTITLE12=Dover Express
EXTD=
EXTT0=
EXTT1=
EXTT2=
EXTT3=
EXTT4=
EXTT5=
EXTT6=
EXTT7=
EXTT8=
EXTT9=
EXTT10=
EXTT11=
EXTT12=
PLAYORDER=
